<svg id="Layer_1" data-name="Layer 1" xmlns="http://www.w3.org/2000/svg" viewBox="0 0 480.5 55"><defs><style>.cls-1,.cls-2{fill:#231f20;}.cls-2{opacity:0.99;}.cls-3,.cls-4{fill:none;}.cls-4{stroke:#231f20;stroke-miterlimit:10;}</style></defs><title>mht</title><path class="cls-1" d="M105.5,250h9.84q2.11,15.74,3.32,27.07l.85-7.54q.51-4.41,1.11-8.6L122.13,250h10.06l3.9,48.64h-7.71l-2.08-33.45-4.81,33.45h-5.27l-5-33.52-2,33.52h-7.38Z" transform="translate(-101 -247)"/><path class="cls-1" d="M142.24,250H158V260.3h-8v9H157v10.09H150v8.85h8v10.39H142.24Z" transform="translate(-101 -247)"/><path class="cls-1" d="M164.2,250H180V260.3h-8v9h6.92v10.09H172v8.85h8v10.39H164.2Z" transform="translate(-101 -247)"/><path class="cls-1" d="M186.16,250h9.07a10.5,10.5,0,0,1,8.69,4q3.2,4,3.19,10.89a19.58,19.58,0,0,1-1.21,6.83,10.3,10.3,0,0,1-3.52,5l6.22,21.93h-8.23l-6.29-22.15H194v22.15h-7.79Zm7.79,9.4V270.9q5.16-.15,5.16-5.14c0-2.26-.39-3.87-1.19-4.84A5.14,5.14,0,0,0,194,259.35Z" transform="translate(-101 -247)"/><path class="cls-1" d="M212.79,250h8V284.2a7,7,0,0,0,.9,3.8,2.76,2.76,0,0,0,2.42,1.41,2.8,2.8,0,0,0,2.48-1.5,7.85,7.85,0,0,0,.91-4.11V250h7.95v31.91a36.89,36.89,0,0,1-1.21,10.46,11.27,11.27,0,0,1-3.56,5.77,10.41,10.41,0,0,1-6.57,1.84q-6.23,0-8.77-4.51t-2.55-15.27Z" transform="translate(-101 -247)"/><path class="cls-1" d="M239.92,250h18.59v11.11h-5.37v37.53h-7.9V261.06h-5.32Z" transform="translate(-101 -247)"/><path class="cls-1" d="M274.11,250.86h8.7v13.69h7.73V250.86h8.7v36.93h-8.7V272.44h-7.73v15.35h-8.7Z" transform="translate(-101 -247)"/><path class="cls-1" d="M320,288.7q-6.94,0-10.6-5.13t-3.64-14.81q0-8.94,3.66-13.93a11.93,11.93,0,0,1,10.21-5q7,0,10.67,5t3.69,14.3q0,9.3-3.63,14.43A11.93,11.93,0,0,1,320,288.7Zm-.31-30.48q-4.71,0-4.71,10.65c0,4.57.39,7.62,1.19,9.15a3.75,3.75,0,0,0,3.46,2.3,4.11,4.11,0,0,0,3.75-2.3c.87-1.53,1.31-4.52,1.31-9Q324.64,258.22,319.64,258.22Z" transform="translate(-101 -247)"/><path class="cls-1" d="M343.19,250.86h11q2.35,12,3.7,20.55l1-5.72q.57-3.35,1.23-6.53l1.7-8.3H373l4.37,36.93h-8.62l-2.33-25.39-5.37,25.39h-5.89l-5.63-25.45-2.24,25.45h-8.24Z" transform="translate(-101 -247)"/><path class="cls-1" d="M384.24,250.86h17.61v7.86H393v6.8h7.72v7.66H393v6.72h9v7.89H384.24Z" transform="translate(-101 -247)"/><path class="cls-1" d="M416.12,250h19v11.11H429.6v37.53h-8.05V261.06h-5.43Z" transform="translate(-101 -247)"/><path class="cls-1" d="M439.8,250H448V284.2a6.78,6.78,0,0,0,.92,3.8,2.81,2.81,0,0,0,2.46,1.41,2.85,2.85,0,0,0,2.53-1.5,7.76,7.76,0,0,0,.93-4.12V250h8.11v31.91a35.7,35.7,0,0,1-1.24,10.46,11.21,11.21,0,0,1-3.63,5.77,10.76,10.76,0,0,1-6.7,1.84q-6.34,0-8.94-4.51t-2.6-15.27Z" transform="translate(-101 -247)"/><path class="cls-1" d="M470.38,250h7.95v48.64h-7.95Z" transform="translate(-101 -247)"/><path class="cls-1" d="M483.47,250h19v11.11H497v37.53H488.9V261.06h-5.43Z" transform="translate(-101 -247)"/><path class="cls-1" d="M507.65,250h7.94v48.64h-7.94Z" transform="translate(-101 -247)"/><path class="cls-1" d="M534.76,299.79q-6.35,0-9.67-6.76t-3.33-19.51q0-11.76,3.34-18.34t9.32-6.58q6.38,0,9.75,6.6T547.54,274q0,12.24-3.32,19T534.76,299.79Zm-.29-40.15q-4.29,0-4.3,14,0,9,1.09,12.06t3.16,3q2.24,0,3.42-3t1.2-11.84Q539,259.64,534.47,259.64Z" transform="translate(-101 -247)"/><path class="cls-1" d="M553.44,250h8L571.56,278l-.29-5.24V250h8v48.64h-8.16L561.17,271l.21,6v21.57h-7.94Z" transform="translate(-101 -247)"/><path class="cls-2" d="M277.89,296.52H276.4a.26.26,0,0,0-.2.07.54.54,0,0,0-.11.24H276v-1.55h.14a.53.53,0,0,0,.11.25.3.3,0,0,0,.2.06h2.85v.16a.42.42,0,0,0-.21.13.32.32,0,0,0-.07.23v1.36a.35.35,0,0,0,.06.23.39.39,0,0,0,.22.13V298a6.13,6.13,0,0,1-3.31,1.09,3.58,3.58,0,0,1-2.38-.77,3.31,3.31,0,0,1-1.16-2.69,3.27,3.27,0,0,1,1-2.54,3.69,3.69,0,0,1,2.6-.9,4.31,4.31,0,0,1,1,.1,5.89,5.89,0,0,1,1,.36,1.44,1.44,0,0,0,.43.13.36.36,0,0,0,.21-.11l.13.07-.71,1.6-.13-.08a.63.63,0,0,0,0-.23.76.76,0,0,0-.16-.17,2.15,2.15,0,0,0-.79-.38,3.18,3.18,0,0,0-1-.16,2.18,2.18,0,0,0-1.56.59,2.28,2.28,0,0,0-.7,1.75,2.25,2.25,0,0,0,.68,1.7,2.29,2.29,0,0,0,1.65.59,4,4,0,0,0,1-.12,3.08,3.08,0,0,0,.84-.35Z" transform="translate(-101 -247)"/><path class="cls-2" d="M281.88,296v1.83h3.86a.28.28,0,0,0,.21-.07.54.54,0,0,0,.11-.24h.14v1.72h-.14A.54.54,0,0,0,286,299a.28.28,0,0,0-.21-.07h-5.46v-.16a.41.41,0,0,0,.22-.12.39.39,0,0,0,.06-.23v-5.64a.37.37,0,0,0-.06-.23.41.41,0,0,0-.22-.13v-.16h5.36a.26.26,0,0,0,.2-.07.38.38,0,0,0,.11-.24h.15v1.73H286a.45.45,0,0,0-.11-.25.3.3,0,0,0-.2-.07h-3.76v1.59h2.44a.32.32,0,0,0,.2-.07.53.53,0,0,0,.11-.25h.14v1.69h-.14a.45.45,0,0,0-.11-.24.28.28,0,0,0-.2-.08Z" transform="translate(-101 -247)"/><path class="cls-2" d="M290.29,293.35v5.06a.33.33,0,0,0,.07.23.41.41,0,0,0,.22.12v.16H288.7v-.16a.41.41,0,0,0,.22-.12.39.39,0,0,0,.06-.23v-5.06h-1.87a.32.32,0,0,0-.2.07.49.49,0,0,0-.11.25h-.14v-1.73h.14a.66.66,0,0,0,.11.25.32.32,0,0,0,.2.06h5.05a.28.28,0,0,0,.2-.06.53.53,0,0,0,.12-.25h.14v1.73h-.14a.48.48,0,0,0-.12-.25.28.28,0,0,0-.2-.07Z" transform="translate(-101 -247)"/><path class="cls-2" d="M298.8,296.13v2.28a.39.39,0,0,0,.07.23.41.41,0,0,0,.22.12v.16H297.2v-.16a.49.49,0,0,0,.23-.12.39.39,0,0,0,.06-.23v-2.28l-1.94-3a3,3,0,0,0-.4-.53.57.57,0,0,0-.34-.16v-.16h2.38v.16q-.3.06-.3.3a1.12,1.12,0,0,0,.18.39l1.09,1.78,1.11-1.78a1,1,0,0,0,.18-.39.22.22,0,0,0-.08-.19.36.36,0,0,0-.21-.11v-.16h2.32v.16a.63.63,0,0,0-.34.16,3.13,3.13,0,0,0-.39.53Z" transform="translate(-101 -247)"/><path class="cls-2" d="M304.8,292.14a3.3,3.3,0,0,1,2.49.94,3.48,3.48,0,0,1,1,2.55,3.63,3.63,0,0,1-.47,1.79,3.17,3.17,0,0,1-3,1.62,3.19,3.19,0,0,1-3.23-2.15,3.84,3.84,0,0,1-.23-1.31,3.71,3.71,0,0,1,.46-1.83A3.21,3.21,0,0,1,304.8,292.14Zm0,1.13a1.94,1.94,0,0,0-1.43.57,2.59,2.59,0,0,0,0,3.5,2.13,2.13,0,0,0,2.88,0,2.34,2.34,0,0,0,.52-.83,2.69,2.69,0,0,0,.16-.89,2.34,2.34,0,0,0-.68-1.78A2.08,2.08,0,0,0,304.8,293.27Z" transform="translate(-101 -247)"/><path class="cls-2" d="M315.33,292.77v3.73a2.93,2.93,0,0,1-.35,1.59,3,3,0,0,1-2.63,1,3.83,3.83,0,0,1-2.19-.52,1.44,1.44,0,0,1-.62-.81,3.88,3.88,0,0,1-.17-1.21v-3.73a.37.37,0,0,0-.06-.23.41.41,0,0,0-.22-.13v-.16H311v.16a.36.36,0,0,0-.22.13.37.37,0,0,0-.06.23v3.32a4.48,4.48,0,0,0,.05.85,1,1,0,0,0,.22.47,2.38,2.38,0,0,0,2.89,0,.92.92,0,0,0,.21-.47,4.29,4.29,0,0,0,.06-.85v-3.32a.37.37,0,0,0-.06-.23.46.46,0,0,0-.22-.13v-.16h1.77v.16a.41.41,0,0,0-.22.13A.37.37,0,0,0,315.33,292.77Z" transform="translate(-101 -247)"/><path class="cls-2" d="M318.16,296.2v2.21a.39.39,0,0,0,.07.23.41.41,0,0,0,.22.12v.16h-1.88v-.16a.41.41,0,0,0,.22-.12.39.39,0,0,0,.06-.23v-5.64a.37.37,0,0,0-.06-.23.41.41,0,0,0-.22-.13v-.16h3.76a5.22,5.22,0,0,1,1.09.09,1.83,1.83,0,0,1,.71.31,1.49,1.49,0,0,1,.51.69,2.44,2.44,0,0,1,.17.9,1.77,1.77,0,0,1-1.64,1.91l1.17,1.84a4.83,4.83,0,0,0,.45.62.56.56,0,0,0,.35.15v.16H321v-.16c.15,0,.22-.08.22-.17a1.22,1.22,0,0,0-.2-.43l-1.22-2Zm0-1.1h2a4.71,4.71,0,0,0,.64,0,.93.93,0,0,0,.33-.12.75.75,0,0,0,.34-.72.78.78,0,0,0-.34-.73.93.93,0,0,0-.33-.12,4.51,4.51,0,0,0-.64,0h-2Z" transform="translate(-101 -247)"/><path class="cls-2" d="M331.48,295.43a1.57,1.57,0,0,1,1,1.57,1.8,1.8,0,0,1-.59,1.43,1.78,1.78,0,0,1-.69.37,3.45,3.45,0,0,1-1,.12h-4.11v-.16a.41.41,0,0,0,.22-.12.39.39,0,0,0,.06-.23v-5.64a.37.37,0,0,0-.06-.23.41.41,0,0,0-.22-.13v-.16h4.07a3.85,3.85,0,0,1,.94.1,1.73,1.73,0,0,1,.63.33,1.7,1.7,0,0,1,.53,1.34A1.48,1.48,0,0,1,331.48,295.43Zm-3.77-.52H330a1.13,1.13,0,0,0,.73-.18.91.91,0,0,0,0-1.2,1.16,1.16,0,0,0-.74-.18h-2.31Zm0,2.91h2.23a1.58,1.58,0,0,0,.9-.19,1,1,0,0,0,0-1.44,1.67,1.67,0,0,0-.9-.19h-2.23Z" transform="translate(-101 -247)"/><path class="cls-2" d="M335,296v1.83h3.86a.28.28,0,0,0,.21-.07.54.54,0,0,0,.11-.24h.14v1.72h-.14a.54.54,0,0,0-.11-.24.28.28,0,0,0-.21-.07h-5.46v-.16a.41.41,0,0,0,.22-.12.39.39,0,0,0,.06-.23v-5.64a.37.37,0,0,0-.06-.23.41.41,0,0,0-.22-.13v-.16h5.36a.24.24,0,0,0,.2-.07.44.44,0,0,0,.12-.24h.14v1.73h-.14a.53.53,0,0,0-.12-.25.28.28,0,0,0-.2-.07H335v1.59h2.44a.3.3,0,0,0,.2-.07.53.53,0,0,0,.12-.25h.14v1.69h-.14a.44.44,0,0,0-.12-.24.26.26,0,0,0-.2-.08Z" transform="translate(-101 -247)"/><path class="cls-2" d="M345.84,292.82l-.72,1.57-.12-.08v-.08c0-.11-.08-.23-.25-.35a2.89,2.89,0,0,0-1.84-.61,2.37,2.37,0,0,0-.83.13,1,1,0,0,0-.42.29.69.69,0,0,0-.16.42.53.53,0,0,0,.41.52,6.81,6.81,0,0,0,.91.14l.69.08a5.64,5.64,0,0,1,1,.2,2.33,2.33,0,0,1,.68.36,1.68,1.68,0,0,1,.47.63,2.09,2.09,0,0,1,.17.83,2,2,0,0,1-.41,1.25,2.16,2.16,0,0,1-1.15.74A4.13,4.13,0,0,1,343,299a4.82,4.82,0,0,1-2.36-.64,1.49,1.49,0,0,0-.29-.13s-.1,0-.19.11l-.12-.07.65-1.64.13.07v.07a.54.54,0,0,0,.19.4,2.31,2.31,0,0,0,.88.49,3.43,3.43,0,0,0,1.14.2,2.08,2.08,0,0,0,1-.22.93.93,0,0,0,.36-.32.75.75,0,0,0,.14-.42.48.48,0,0,0-.32-.47,3.4,3.4,0,0,0-.91-.18l-.68-.08a7.54,7.54,0,0,1-1-.15,2.27,2.27,0,0,1-.57-.23,1.55,1.55,0,0,1-.63-.66,2,2,0,0,1-.2-.91,1.92,1.92,0,0,1,.52-1.39,2.7,2.7,0,0,1,2.06-.73,4.1,4.1,0,0,1,1.08.13,6.63,6.63,0,0,1,1.24.48,1.43,1.43,0,0,0,.31.11.38.38,0,0,0,.22-.11Z" transform="translate(-101 -247)"/><path class="cls-2" d="M350.07,293.35v5.06a.39.39,0,0,0,.06.23.45.45,0,0,0,.22.12v.16h-1.87v-.16a.45.45,0,0,0,.22-.12.39.39,0,0,0,.06-.23v-5.06h-1.87a.28.28,0,0,0-.2.07.48.48,0,0,0-.12.25h-.14v-1.73h.14a.64.64,0,0,0,.12.25.3.3,0,0,0,.2.06h5a.31.31,0,0,0,.21-.06.53.53,0,0,0,.12-.25h.14v1.73h-.14a.48.48,0,0,0-.12-.25.31.31,0,0,0-.21-.07Z" transform="translate(-101 -247)"/><path class="cls-2" d="M358.41,293.35v5.06a.39.39,0,0,0,.06.23.45.45,0,0,0,.22.12v.16h-1.88v-.16a.41.41,0,0,0,.22-.12.33.33,0,0,0,.07-.23v-5.06h-1.87a.28.28,0,0,0-.2.07.48.48,0,0,0-.12.25h-.14v-1.73h.14a.53.53,0,0,0,.12.25.28.28,0,0,0,.2.06h5a.33.33,0,0,0,.21-.06.53.53,0,0,0,.11-.25h.15v1.73h-.15a.49.49,0,0,0-.11-.25.33.33,0,0,0-.21-.07Z" transform="translate(-101 -247)"/><path class="cls-2" d="M362.93,296v1.83h3.87a.27.27,0,0,0,.2-.07.45.45,0,0,0,.11-.24h.14v1.72h-.14A.45.45,0,0,0,367,299a.27.27,0,0,0-.2-.07h-5.47v-.16a.41.41,0,0,0,.22-.12.33.33,0,0,0,.07-.23v-5.64a.32.32,0,0,0-.07-.23.41.41,0,0,0-.22-.13v-.16h5.36a.24.24,0,0,0,.2-.07.44.44,0,0,0,.12-.24h.14v1.73H367a.53.53,0,0,0-.12-.25.28.28,0,0,0-.2-.07h-3.76v1.59h2.44a.28.28,0,0,0,.2-.07.53.53,0,0,0,.12-.25h.14v1.69h-.14a.44.44,0,0,0-.12-.24.25.25,0,0,0-.2-.08Z" transform="translate(-101 -247)"/><path class="cls-2" d="M372.59,297.22h-2.73l-.4.94a.79.79,0,0,0-.09.31c0,.14.1.24.3.29v.16h-2v-.16a.57.57,0,0,0,.27-.13,1.71,1.71,0,0,0,.21-.38l2.21-5.13a1,1,0,0,0,.1-.39.33.33,0,0,0-.25-.32v-.16h2.13v.16c-.17.06-.26.15-.26.29a.88.88,0,0,0,.08.32l2.3,5.14a1.6,1.6,0,0,0,.25.44.49.49,0,0,0,.3.16v.16H372.8v-.16c.2,0,.29-.13.29-.3a1,1,0,0,0-.08-.3Zm-.38-.91-1-2.38-1,2.38Z" transform="translate(-101 -247)"/><path class="cls-2" d="M380.9,296.63l.84,1.39-.12.09a.32.32,0,0,0-.2-.13,1.6,1.6,0,0,0-.44.23,5.59,5.59,0,0,1-1.28.66,4,4,0,0,1-1.23.17,3.52,3.52,0,0,1-2.33-.75,3.12,3.12,0,0,1-.85-1.08,3.65,3.65,0,0,1-.36-1.63,3.58,3.58,0,0,1,.64-2.1,3.32,3.32,0,0,1,2.9-1.34,4,4,0,0,1,1.23.16A5.8,5.8,0,0,1,381,293a1.6,1.6,0,0,0,.44.23.37.37,0,0,0,.2-.13l.12.09-.84,1.39-.12-.09a.62.62,0,0,0,0-.13.4.4,0,0,0-.11-.26,1.38,1.38,0,0,0-.39-.3,3,3,0,0,0-1.65-.49,2.29,2.29,0,0,0-1.64.57,2.26,2.26,0,0,0-.73,1.75,2.22,2.22,0,0,0,.73,1.74,2.29,2.29,0,0,0,1.64.57,3.1,3.1,0,0,0,1.65-.48,1.89,1.89,0,0,0,.39-.3.45.45,0,0,0,.11-.27.62.62,0,0,0,0-.13Z" transform="translate(-101 -247)"/><path class="cls-2" d="M387.62,296h-3.47v2.4a.39.39,0,0,0,.06.23.45.45,0,0,0,.22.12v.16h-1.88v-.16a.41.41,0,0,0,.22-.12.39.39,0,0,0,.07-.23v-5.65a.34.34,0,0,0-.07-.22.41.41,0,0,0-.22-.13v-.16h1.88v.16a.36.36,0,0,0-.22.13.34.34,0,0,0-.06.22v2.15h3.47v-2.15a.34.34,0,0,0-.07-.22.36.36,0,0,0-.22-.13v-.16h1.88v.16a.41.41,0,0,0-.22.13.34.34,0,0,0-.06.22v5.65a.39.39,0,0,0,.06.23.41.41,0,0,0,.22.12v.16h-1.88v-.16a.41.41,0,0,0,.22-.12.39.39,0,0,0,.07-.23Z" transform="translate(-101 -247)"/><path class="cls-2" d="M391.89,296v1.83h3.87a.27.27,0,0,0,.2-.07.45.45,0,0,0,.11-.24h.14v1.72h-.14A.45.45,0,0,0,396,299a.27.27,0,0,0-.2-.07h-5.47v-.16a.41.41,0,0,0,.22-.12.39.39,0,0,0,.07-.23v-5.64a.37.37,0,0,0-.07-.23.41.41,0,0,0-.22-.13v-.16h5.36a.24.24,0,0,0,.2-.07.44.44,0,0,0,.12-.24h.14v1.73H396a.53.53,0,0,0-.12-.25.28.28,0,0,0-.2-.07h-3.76v1.59h2.44a.3.3,0,0,0,.2-.07.53.53,0,0,0,.12-.25h.14v1.69h-.14a.44.44,0,0,0-.12-.24.26.26,0,0,0-.2-.08Z" transform="translate(-101 -247)"/><path class="cls-2" d="M398.74,296.2v2.21a.33.33,0,0,0,.07.23.42.42,0,0,0,.21.12v.16h-1.87v-.16a.45.45,0,0,0,.22-.12.39.39,0,0,0,.06-.23v-5.64a.37.37,0,0,0-.06-.23.46.46,0,0,0-.22-.13v-.16h3.76a5.22,5.22,0,0,1,1.09.09,1.79,1.79,0,0,1,.7.31,1.51,1.51,0,0,1,.52.69,2.44,2.44,0,0,1,.16.9,1.76,1.76,0,0,1-1.63,1.91l1.17,1.84a3.42,3.42,0,0,0,.45.62.54.54,0,0,0,.35.15v.16h-2.17v-.16c.15,0,.22-.08.22-.17a1.33,1.33,0,0,0-.21-.43l-1.21-2Zm0-1.1h2a4.44,4.44,0,0,0,.63,0,.92.92,0,0,0,.34-.12.77.77,0,0,0,.34-.72.8.8,0,0,0-.34-.73,1,1,0,0,0-.33-.12,4.61,4.61,0,0,0-.64,0h-2Z" transform="translate(-101 -247)"/><line class="cls-3" x1="0.5" y1="54" x2="480.5" y2="53.5"/><line class="cls-4" y1="54.5" x2="479" y2="54.5"/><line class="cls-4" x1="0.5" y1="0.5" x2="479.5" y2="0.5"/></svg>